<svg width="20" height="20" viewBox="0 0 20 20" fill="none" xmlns="http://www.w3.org/2000/svg">
<path d="M9.72295 14.6669C8.74567 14.6671 7.79028 14.3774 6.97764 13.8346C6.16499 13.2917 5.53158 12.5201 5.15751 11.6172C4.78345 10.7144 4.68553 9.72084 4.87615 8.76232C5.06677 7.80381 5.53736 6.92335 6.2284 6.23231C6.91945 5.54127 7.7999 5.07068 8.75842 4.88006C9.71693 4.68944 10.7104 4.78735 11.6133 5.16142C12.5162 5.53548 13.2878 6.16889 13.8307 6.98154C14.3735 7.79419 14.6632 8.74957 14.663 9.72686C14.6613 11.0365 14.1403 12.292 13.2142 13.2181C12.2881 14.1442 11.0326 14.6652 9.72295 14.6669ZM9.72295 6.70693C9.12549 6.7058 8.54113 6.88192 8.04379 7.21299C7.54645 7.54407 7.15849 8.01522 6.929 8.56685C6.6995 9.11847 6.63879 9.72577 6.75454 10.3119C6.87028 10.8981 7.15729 11.4367 7.57924 11.8597C8.0012 12.2826 8.53913 12.571 9.12499 12.6881C9.71085 12.8053 10.3183 12.7461 10.8705 12.5179C11.4227 12.2898 11.8948 11.9029 12.227 11.4064C12.5593 10.9099 12.7369 10.3259 12.7372 9.72849C12.7365 8.92859 12.419 8.16152 11.8541 7.59522C11.2891 7.02892 10.5228 6.70952 9.72295 6.70693Z" fill="black" fill-opacity="0.7"/>
<path d="M13.4117 19.102H5.69037C4.18172 19.1003 2.73535 18.5002 1.66857 17.4335C0.601798 16.3667 0.00172491 14.9203 0 13.4117L0 5.69037C0.00172491 4.18172 0.601798 2.73535 1.66857 1.66857C2.73535 0.601798 4.18172 0.00172491 5.69037 0L13.4117 0C14.9203 0.00172491 16.3667 0.601798 17.4335 1.66857C18.5002 2.73535 19.1003 4.18172 19.102 5.69037V13.4117C19.1003 14.9203 18.5002 16.3667 17.4335 17.4335C16.3667 18.5002 14.9203 19.1003 13.4117 19.102ZM5.69037 1.92177C4.69127 1.92306 3.73346 2.32053 3.027 3.027C2.32053 3.73346 1.92306 4.69127 1.92177 5.69037V13.4117C1.92285 14.4109 2.32022 15.3689 3.02671 16.0756C3.7332 16.7822 4.69113 17.1798 5.69037 17.1811H13.4117C14.4108 17.1798 15.3686 16.7823 16.075 16.0759C16.7815 15.3694 17.179 14.4116 17.1803 13.4125V5.69037C17.179 4.69127 16.7815 3.73346 16.075 3.027C15.3686 2.32053 14.4108 1.92306 13.4117 1.92177H5.69037ZM14.5009 5.8313C14.2667 5.8313 14.0379 5.76188 13.8432 5.63181C13.6486 5.50175 13.4969 5.31688 13.4073 5.10059C13.3177 4.8843 13.2942 4.64629 13.3399 4.41668C13.3856 4.18707 13.4983 3.97615 13.6639 3.81061C13.8294 3.64507 14.0403 3.53233 14.2699 3.48666C14.4995 3.44098 14.7375 3.46443 14.9538 3.55402C15.1701 3.64361 15.355 3.79533 15.4851 3.98998C15.6151 4.18464 15.6846 4.4135 15.6846 4.64761C15.6841 4.96141 15.5593 5.26224 15.3374 5.48413C15.1155 5.70602 14.8147 5.83087 14.5009 5.8313Z" fill="black" fill-opacity="0.7"/>
</svg>
