<svg width="140" height="34" viewBox="0 0 140 34" fill="none" xmlns="http://www.w3.org/2000/svg">
<path fill-rule="evenodd" clip-rule="evenodd" d="M96.8213 0.0602368C96.8007 0.142185 96.5002 0.287075 96.2819 0.32037C95.8047 0.393159 95.4012 0.504219 95.4012 0.562771C95.4012 0.58729 95.1845 0.678653 95.0403 0.714958C94.9755 0.731235 94.8716 0.786625 94.8092 0.838034C94.695 0.932178 94.6132 0.977949 94.4094 1.06171C94.3483 1.08681 94.2698 1.14475 94.2349 1.19045C94.2001 1.23617 94.1179 1.30482 94.0524 1.34304C93.9018 1.43083 93.6634 1.63902 93.2668 2.02902C93.0147 2.27693 92.9393 2.36834 92.8733 2.5065C92.8241 2.60937 92.757 2.70372 92.7047 2.74362C92.6236 2.80546 92.4909 3.02118 92.4909 3.09124C92.4909 3.10836 92.4475 3.17474 92.3945 3.23881C92.2728 3.38574 92.2435 3.45202 92.1697 3.74634C92.1363 3.87988 92.069 4.05783 92.0165 4.1517C91.918 4.32771 91.9182 4.32664 91.8026 5.14457C91.775 5.33916 91.7348 5.56115 91.7132 5.63787C91.6916 5.71459 91.674 5.82062 91.674 5.87348C91.674 5.92635 91.6458 6.06659 91.6114 6.18515C91.5658 6.34244 91.5491 6.46154 91.5494 6.62564C91.5497 6.74935 91.5376 6.89067 91.5226 6.93968C91.4874 7.05436 91.4865 8.11158 91.5214 8.29497C91.5699 8.54972 91.4553 8.79452 91.2719 8.82784C91.2333 8.83486 90.455 8.83455 89.5423 8.82715C87.6978 8.81223 87.8109 8.80258 87.7042 8.9836C87.6546 9.06774 87.6529 9.12344 87.6454 10.9327C87.6412 11.957 87.6447 12.8434 87.6532 12.9025C87.6618 12.9615 87.6901 13.0362 87.7161 13.0683L87.7635 13.1268L92.2653 13.1449C94.7412 13.1549 96.8474 13.1632 96.9457 13.1634C98.2943 13.1657 102.748 13.1368 102.783 13.1254C102.81 13.1171 102.851 13.08 102.875 13.0431C102.916 12.9815 102.92 12.8254 102.927 11.1124C102.936 9.14467 102.93 9.03032 102.821 8.89318L102.766 8.82432L100.139 8.82692C98.6945 8.82833 97.4539 8.8359 97.3822 8.84371C97.2754 8.85535 97.2399 8.84843 97.185 8.80529C97.0381 8.68984 97.035 8.66502 97.0354 7.62487C97.036 6.52652 97.0492 6.41561 97.2103 6.16433C97.2652 6.07869 97.341 5.91405 97.3788 5.79847C97.4317 5.63659 97.4651 5.57572 97.5244 5.53357C97.5667 5.50346 97.6358 5.42279 97.678 5.35431C97.7231 5.28107 97.7983 5.20422 97.8607 5.16758C97.9191 5.13337 97.984 5.08033 98.0051 5.04971C98.0704 4.9548 98.1682 4.87239 98.2349 4.85607C98.3271 4.83349 98.5224 4.74092 98.5643 4.69998C98.6542 4.61208 98.9139 4.54932 99.3581 4.50809C99.8404 4.46334 99.7645 4.46536 101.385 4.45398C102.704 4.44472 102.788 4.44142 102.832 4.39721C102.92 4.30666 102.932 4.0215 102.932 1.9757V0.000255133H99.8842H96.8363L96.8213 0.0602368ZM107.834 0.0745497C107.834 0.11555 107.808 0.204591 107.776 0.272405L107.719 0.395711V2.65363C107.719 4.88564 107.719 4.91258 107.771 5.0008C107.8 5.04989 107.852 5.10433 107.886 5.12181C107.935 5.14669 108.486 5.15225 110.412 5.1474L112.876 5.14118L112.966 5.08477C113.037 5.04063 113.067 4.99777 113.101 4.88788C113.142 4.75929 113.146 4.56746 113.146 2.61784C113.147 0.330167 113.152 0.422602 113.024 0.276589C113.003 0.253168 112.972 0.184282 112.954 0.12351L112.921 0.0130118L110.377 0.00650588L107.834 0V0.0745497ZM121.335 2.07104C121.283 2.10076 121.228 2.15431 121.212 2.19003C121.19 2.238 121.181 3.0771 121.177 5.3984C121.173 8.50224 121.172 8.54255 121.121 8.59924C121.093 8.63083 121.019 8.67953 120.957 8.7075C120.845 8.75735 120.787 8.75829 117.88 8.75612C116.045 8.75475 114.882 8.76329 114.824 8.7786C114.772 8.79233 114.701 8.83846 114.664 8.88244C114.515 9.05848 114.52 8.98799 114.522 10.9355C114.523 12.8303 114.528 12.9054 114.642 13.0088C114.76 13.116 114.701 13.1141 117.861 13.1141C120.841 13.1141 120.894 13.115 121.027 13.1657C121.138 13.2078 121.229 13.254 121.309 13.3091C121.315 13.3126 121.292 13.3707 121.258 13.438L121.198 13.5606V20.1557C121.198 26.9669 121.204 27.4158 121.302 28.1656C121.344 28.4812 121.378 28.6057 121.479 28.8046C121.514 28.8739 121.543 28.9516 121.543 28.9774C121.543 29.0031 121.554 29.0352 121.567 29.0487C121.581 29.0623 121.609 29.1569 121.631 29.2589C121.673 29.4566 121.706 29.533 121.838 29.7358C121.884 29.806 121.929 29.9037 121.939 29.9528C121.972 30.119 122.062 30.2967 122.181 30.4277C122.245 30.4994 122.312 30.6027 122.329 30.6573C122.345 30.7119 122.409 30.8097 122.471 30.8748C122.533 30.9399 122.624 31.0559 122.673 31.1327C122.765 31.2764 123.08 31.6007 123.467 31.9507C123.609 32.08 123.744 32.1761 123.851 32.2245C123.952 32.2703 124.041 32.3321 124.081 32.385C124.146 32.4696 124.186 32.4912 124.491 32.6066C124.575 32.6384 124.679 32.6959 124.721 32.7343C124.83 32.8336 124.869 32.8495 125.153 32.9096C125.34 32.949 125.452 32.9898 125.576 33.0635C125.767 33.1767 126.047 33.2557 126.353 33.2826C126.559 33.3005 126.821 33.3704 126.916 33.4324C127.01 33.4941 127.295 33.5481 127.67 33.5756C128.696 33.6508 131.647 33.6251 132.048 33.5376C132.132 33.5191 132.287 33.4967 132.392 33.4876C132.498 33.4785 132.641 33.4481 132.712 33.42C132.782 33.3919 133.018 33.3434 133.237 33.3123C133.473 33.2788 133.66 33.2391 133.697 33.2149L133.758 33.174L133.765 31.04C133.772 28.7232 133.775 28.775 133.635 28.7399C133.578 28.7256 132.549 28.7857 132.099 28.8297C131.972 28.842 131.769 28.8529 131.647 28.8539C131.525 28.8549 131.359 28.873 131.278 28.894C131.092 28.9423 130.861 28.9426 130.543 28.8949C130.406 28.8743 130.16 28.8509 129.997 28.8427C129.644 28.8252 129.595 28.8207 129.163 28.7672C128.859 28.7294 128.512 28.629 128.512 28.5786C128.512 28.5501 128.301 28.4529 128.143 28.409C128.037 28.3794 127.972 28.3434 127.926 28.2886C127.89 28.2457 127.823 28.1749 127.776 28.1313C127.668 28.032 127.552 27.9162 127.45 27.8058C127.406 27.7589 127.336 27.6952 127.294 27.6643C127.244 27.6276 127.198 27.5546 127.161 27.4537C127.13 27.3687 127.065 27.2562 127.017 27.2036C126.907 27.0847 126.841 26.9126 126.803 26.6487C126.763 26.3668 126.7 26.1021 126.651 26.011C126.583 25.8844 126.571 25.2674 126.551 21.0614C126.541 18.8864 126.53 17.1045 126.527 17.1015C126.523 17.0986 126.489 17.067 126.451 17.0313C126.412 16.9956 126.346 16.9543 126.304 16.9395C126.262 16.9247 126.185 16.8566 126.132 16.7881C126.069 16.7049 125.997 16.6457 125.915 16.6098C125.848 16.5802 125.759 16.5182 125.717 16.4719C125.675 16.4256 125.571 16.3441 125.487 16.2909C125.403 16.2376 125.278 16.1441 125.21 16.0831C125.142 16.0221 125.041 15.9584 124.985 15.9417C124.892 15.914 124.708 15.7442 124.708 15.6866C124.708 15.6753 124.631 15.627 124.536 15.5792C124.441 15.5315 124.341 15.4665 124.313 15.4347C124.284 15.403 124.181 15.3247 124.083 15.2607C123.984 15.1967 123.858 15.1024 123.802 15.051C123.746 14.9996 123.64 14.9272 123.566 14.8901C123.476 14.845 123.41 14.7882 123.366 14.7189C123.318 14.6421 123.263 14.5984 123.156 14.5511C123.076 14.5158 122.964 14.4437 122.907 14.3907C122.849 14.3377 122.768 14.2729 122.728 14.2467C122.687 14.2205 122.638 14.1846 122.619 14.1668C122.601 14.1491 122.575 14.1346 122.561 14.1346C122.548 14.1346 122.489 14.0901 122.429 14.0358C122.37 13.9814 122.264 13.908 122.194 13.8726C122.113 13.8317 122.037 13.7664 121.986 13.6939C121.926 13.6093 121.873 13.5677 121.782 13.5335C121.629 13.4767 121.441 13.3526 121.441 13.3088C121.441 13.2736 121.532 13.1861 121.616 13.1412C121.654 13.1211 123.211 13.1134 127.136 13.1138L132.604 13.1145L132.713 13.0507C132.914 12.9332 132.909 12.99 132.906 10.9242C132.904 9.19564 132.902 9.1165 132.855 9.01894C132.798 8.90089 132.714 8.81636 132.619 8.78036C132.576 8.76416 131.54 8.75441 129.746 8.75337C127.244 8.75191 126.925 8.74727 126.801 8.71063C126.639 8.66315 126.601 8.6367 126.568 8.55087C126.547 8.49413 126.537 2.53546 126.558 2.36993C126.563 2.33314 126.546 2.25716 126.521 2.20108C126.431 2.00047 126.648 2.01573 123.892 2.01639C121.429 2.01698 121.428 2.017 121.335 2.07104ZM0 9.68136V17.2959L2.50821 17.3034C4.87462 17.3106 5.0256 17.3084 5.17913 17.2644C5.26864 17.2387 5.36718 17.1924 5.39814 17.1614L5.45443 17.1052L5.45242 11.0084C5.45132 7.65513 5.45701 4.32029 5.46508 3.59762L5.47976 2.28369L5.41007 2.21603C5.25373 2.06435 5.30164 2.06683 2.5298 2.06683H0V9.68136ZM13.8749 2.1077C13.8187 2.12821 13.7518 2.1659 13.7262 2.19146C13.6815 2.23598 13.6797 2.36977 13.6824 5.37812C13.6853 8.50666 13.6851 8.51872 13.6323 8.63103C13.6031 8.693 13.5445 8.77699 13.502 8.81769L13.4248 8.89163L10.4122 8.89665L7.39965 8.9017L7.29024 8.96579C7.07924 9.08935 7.09476 8.92597 7.09035 11.0733L7.08641 12.9847L7.14488 13.0469C7.17702 13.0811 7.25342 13.1217 7.31464 13.1371C7.39378 13.157 9.02464 13.1651 12.9552 13.1651C19.0782 13.1651 18.6616 13.1534 18.6616 13.3257C18.6616 13.4261 18.6199 13.4697 18.4564 13.5408C18.3927 13.5685 18.3097 13.6198 18.2718 13.6549C18.234 13.6899 18.1051 13.7915 17.9855 13.8806C17.8659 13.9697 17.7681 14.0512 17.7681 14.0618C17.7681 14.0724 17.6963 14.1219 17.6085 14.1718C17.4148 14.282 17.3842 14.3063 17.3269 14.3959C17.3022 14.4344 17.223 14.4958 17.1508 14.5324C17.0785 14.569 16.9793 14.6436 16.9302 14.6983C16.8811 14.7529 16.7824 14.8314 16.7109 14.8727C16.6395 14.914 16.5238 15.0013 16.4539 15.0668C16.384 15.1322 16.2611 15.2189 16.1808 15.2595C16.1005 15.3 16.0026 15.374 15.9632 15.424C15.9239 15.4739 15.8376 15.5445 15.7715 15.5808C15.7054 15.6171 15.6206 15.6911 15.5831 15.7451C15.5402 15.8071 15.466 15.8665 15.3824 15.9061C15.3094 15.9406 15.201 16.016 15.1414 16.0738C15.0818 16.1316 14.9563 16.2286 14.8625 16.2893C14.7686 16.3501 14.6593 16.4365 14.6195 16.4813C14.5796 16.5261 14.505 16.5821 14.4535 16.6057C14.3175 16.668 14.2195 16.7383 14.2195 16.7737C14.2195 16.8188 14.1076 16.9166 13.9709 16.991C13.9053 17.0267 13.83 17.0931 13.8036 17.1387C13.6803 17.3509 13.6841 17.2027 13.6837 21.8398C13.6835 25.0597 13.6911 26.2131 13.7129 26.2791C13.7291 26.3281 13.7503 26.6265 13.76 26.9423C13.7756 27.4532 13.8285 28.0047 13.9176 28.5853C13.9343 28.694 13.9782 28.8256 14.0325 28.9297C14.0809 29.0223 14.1527 29.2214 14.1922 29.372C14.2416 29.5605 14.2868 29.6746 14.3374 29.7384C14.4676 29.9022 14.4757 29.9175 14.5604 30.1602C14.619 30.3279 14.672 30.4298 14.7379 30.5014C14.7897 30.5575 14.8322 30.6149 14.8324 30.6289C14.8334 30.6991 14.9661 30.9253 15.0793 31.0499C15.1495 31.1271 15.2379 31.2438 15.276 31.3092C15.314 31.3747 15.3704 31.4448 15.4014 31.4651C15.4841 31.5194 15.6236 31.6674 15.6236 31.7009C15.6236 31.7452 15.7276 31.8314 15.8337 31.8751C15.8861 31.8966 15.9837 31.9644 16.0507 32.0257C16.1177 32.087 16.2354 32.1767 16.3123 32.225C16.3892 32.2733 16.5033 32.357 16.5658 32.411C16.6282 32.4651 16.7204 32.5268 16.7706 32.5482C16.931 32.6167 17.0133 32.663 17.0788 32.7215C17.1734 32.8061 17.2328 32.8312 17.4967 32.8981C17.75 32.9623 17.8574 33.0078 17.9895 33.1065C18.0846 33.1776 18.2918 33.2369 18.5594 33.2695C18.7374 33.2912 18.9215 33.3447 19.236 33.4661C19.4092 33.533 19.6552 33.569 20.2443 33.6137C21.4558 33.7055 22.338 33.7251 23.1036 33.6769C23.2931 33.665 23.6895 33.643 23.9843 33.628C24.2792 33.613 24.6353 33.589 24.7757 33.5747C24.9161 33.5604 25.141 33.5382 25.2754 33.5254C25.4181 33.5118 25.5881 33.4765 25.6839 33.4406C25.7741 33.4069 25.893 33.3709 25.9481 33.3606C26.1168 33.3294 26.2314 33.2716 26.2769 33.1947C26.3167 33.1273 26.3202 32.951 26.3202 31.0175V28.9137L26.2656 28.8443C26.211 28.7749 26.2108 28.7749 25.9401 28.7873C25.4218 28.811 25.0549 28.8535 24.7885 28.9206L24.5204 28.9882L23.512 28.9846C22.4746 28.981 22.3465 28.9714 21.9379 28.8671C21.8092 28.8342 21.5789 28.7899 21.4261 28.7686C21.0948 28.7224 21.0011 28.6868 20.8562 28.5517C20.7961 28.4957 20.7113 28.4424 20.6679 28.4334C20.5221 28.4031 20.3722 28.2932 20.0865 28.0069C19.8781 27.798 19.7856 27.6848 19.7388 27.5811C19.7037 27.5033 19.6274 27.3881 19.5693 27.325C19.4771 27.2247 19.4581 27.1826 19.4193 26.9933C19.379 26.7963 19.3091 26.5675 19.205 26.2917C19.0997 26.0128 19.0697 24.2482 19.0699 18.3521L19.07 13.321L19.1316 13.2494L19.1932 13.1779L22.2015 13.1651C24.3828 13.1558 25.2275 13.1443 25.2746 13.1231C25.4141 13.0602 25.4077 13.1608 25.4046 11.0837C25.4014 8.93839 25.4118 9.06478 25.2289 8.95158C25.147 8.90091 25.1091 8.9003 22.2548 8.90257C20.6646 8.90385 19.3291 8.89543 19.287 8.88387C19.2338 8.86922 19.191 8.82835 19.1466 8.74964L19.0828 8.63649L19.0771 5.44734C19.074 3.6933 19.0652 2.23256 19.0576 2.20123C19.0239 2.06287 19.0993 2.06668 16.4354 2.06861C14.3458 2.07015 13.9617 2.07601 13.8749 2.1077ZM134.707 2.11706C134.654 2.12742 134.591 2.15521 134.567 2.17881C134.527 2.21876 134.523 2.73561 134.511 9.67708C134.504 13.8153 134.508 17.1567 134.52 17.187C134.572 17.3141 134.494 17.3105 137.339 17.3178L140 17.3247V9.70851V2.09234L137.402 2.09528C135.974 2.09688 134.761 2.10668 134.707 2.11706ZM73.1783 8.17904C72.9818 8.19715 72.7061 8.22433 72.5656 8.23946C72.4252 8.25456 72.138 8.27841 71.9274 8.29245C71.1479 8.34442 70.8603 8.40141 70.6893 8.53786C70.6429 8.57485 70.3503 8.63649 70.039 8.67489C69.8676 8.69602 69.7776 8.72181 69.6816 8.7773C69.465 8.90247 69.3029 8.97263 69.1898 8.99016C69.0487 9.01202 68.9176 9.07387 68.7699 9.18822C68.7042 9.23912 68.6065 9.28848 68.5529 9.29792C68.3119 9.34035 68.123 9.42222 67.996 9.53936C67.9115 9.6172 67.8177 9.67389 67.7186 9.70682C67.6269 9.73729 67.5229 9.7978 67.4505 9.86271C67.3826 9.92361 67.2561 9.99882 67.1535 10.0393C67.0107 10.0957 66.9565 10.1335 66.8832 10.2279C66.8149 10.3158 66.7589 10.3572 66.6632 10.3904C66.536 10.4345 66.4206 10.5255 66.0198 10.8978C65.9157 10.9944 65.7836 11.1034 65.7262 11.14C65.6688 11.1765 65.5903 11.2511 65.5518 11.3057C65.5132 11.3603 65.4368 11.4365 65.3818 11.475C65.3269 11.5135 65.2621 11.5782 65.2378 11.6187C65.2134 11.6592 65.1291 11.7584 65.0503 11.8392C64.7279 12.1695 64.4943 12.4396 64.422 12.5653C64.3798 12.6386 64.3084 12.7296 64.2632 12.7675C64.2181 12.8055 64.1453 12.9076 64.1015 12.9944C64.0578 13.0813 63.9856 13.1925 63.9411 13.2416C63.8966 13.2907 63.8477 13.3539 63.8324 13.382C63.7437 13.5442 63.6533 13.6822 63.5382 13.8312C63.5014 13.8788 63.4458 14.0035 63.4145 14.1083C63.3633 14.2801 63.2287 14.5173 63.1826 14.5173C63.1633 14.5173 63.0741 14.7501 63.0346 14.9036C63.0215 14.9547 62.9532 15.0716 62.8828 15.1633C62.7947 15.2783 62.7494 15.3644 62.7373 15.4404C62.707 15.6301 62.6204 15.8893 62.5667 15.9508C62.4786 16.0517 62.4479 16.1337 62.405 16.382C62.3348 16.7886 62.2425 17.1432 62.1778 17.2551C62.0844 17.4169 62.0609 17.5309 62.0344 17.9516C62.0204 18.1738 61.9835 18.4602 61.9473 18.6277C61.9128 18.7876 61.8676 19.0274 61.8469 19.1607C61.8262 19.294 61.7906 19.5068 61.768 19.6336C61.7327 19.8305 61.7283 20.0331 61.7379 21.024C61.7509 22.3744 61.7904 23.0136 61.8688 23.1403C61.9085 23.2046 61.9908 23.7221 62.0229 24.1103C62.0608 24.5688 62.0992 24.7402 62.2235 25.0056C62.2899 25.1474 62.3247 25.2775 62.4068 25.6921C62.4486 25.9029 62.5046 26.0454 62.5976 26.1774C62.6519 26.2546 62.7139 26.4697 62.7363 26.6592C62.7552 26.8188 62.7997 26.9149 62.9198 27.0556C62.978 27.1238 63.0271 27.2273 63.0718 27.3764C63.1222 27.5443 63.1613 27.6218 63.2367 27.7034C63.3116 27.7844 63.3518 27.8638 63.4028 28.0307C63.4621 28.2249 63.4863 28.2672 63.6077 28.3875C63.6835 28.4626 63.7454 28.5402 63.7454 28.5599C63.7454 28.6178 63.846 28.7895 63.9399 28.892C63.9878 28.9442 64.0626 29.0636 64.1063 29.1573C64.157 29.2663 64.2268 29.3644 64.2999 29.4293C64.3628 29.4852 64.4364 29.5743 64.4634 29.6274C64.4905 29.6805 64.5612 29.7589 64.6205 29.8017C64.6827 29.8466 64.7538 29.9301 64.7884 29.9991C64.8534 30.1283 65.0286 30.325 65.319 30.5946C65.3394 30.6135 65.4172 30.6921 65.4919 30.7692C65.714 30.9985 65.8131 31.0833 65.9689 31.1775C66.0502 31.2266 66.1436 31.3069 66.1766 31.356C66.2095 31.4052 66.2754 31.4683 66.3229 31.4964C66.3705 31.5244 66.4671 31.6036 66.5376 31.6722C66.6081 31.7409 66.7123 31.8177 66.7693 31.8428C66.8262 31.868 66.9466 31.9525 67.0368 32.0305C67.127 32.1086 67.2098 32.1725 67.2209 32.1725C67.2919 32.1725 67.5432 32.294 67.6342 32.3724C67.7631 32.4834 67.8784 32.5442 68.0327 32.5826C68.103 32.6 68.1804 32.6451 68.2363 32.7009C68.3701 32.8346 68.4099 32.854 68.6409 32.8973C68.8897 32.944 68.9636 32.9785 69.0728 33.0985C69.139 33.1713 69.179 33.191 69.2898 33.2057C69.6091 33.2479 69.7875 33.3066 70.1021 33.4727C70.1988 33.5238 70.3504 33.5573 70.6893 33.6027C71.1008 33.6579 71.3154 33.7032 71.5317 33.7805C71.7146 33.8459 71.809 33.8621 72.1317 33.8829C72.3423 33.8966 72.595 33.918 72.6933 33.9305C72.7916 33.9431 73.2568 33.9542 73.7272 33.9551C75.0921 33.958 76.0041 33.8928 76.3439 33.7681C76.4447 33.7311 76.7285 33.6697 76.9949 33.6272C77.4775 33.5502 77.7066 33.4957 77.8014 33.4352C77.8644 33.3951 78.2401 33.2811 78.3862 33.2578C78.5733 33.228 78.7423 33.1603 78.8713 33.0635C78.9472 33.0065 79.085 32.94 79.2116 32.8992C79.3285 32.8615 79.4606 32.7997 79.5051 32.762C79.6348 32.6518 79.7161 32.6083 79.8627 32.5701C80.0428 32.5232 80.1815 32.4504 80.2718 32.3555C80.3122 32.3129 80.4147 32.2535 80.5015 32.2223C80.6086 32.1838 80.692 32.1311 80.7645 32.056C80.823 31.9956 80.9206 31.9208 80.9815 31.8897C81.0424 31.8587 81.144 31.7818 81.2071 31.7189C81.2703 31.656 81.4006 31.5666 81.4967 31.5201C81.6128 31.4641 81.6976 31.4016 81.7496 31.334C81.7927 31.278 81.8825 31.2025 81.9492 31.1662C82.0161 31.1298 82.0931 31.062 82.1209 31.0149C82.1486 30.9679 82.2157 30.8971 82.27 30.8576C82.3815 30.7764 82.5074 30.642 82.5084 30.603C82.5088 30.5887 82.5668 30.5393 82.6373 30.4932C82.7078 30.4471 82.794 30.3641 82.8289 30.3089C82.8638 30.2537 82.9391 30.1775 82.9963 30.1398C83.0624 30.096 83.1238 30.0241 83.1652 29.9418C83.201 29.8707 83.2785 29.7607 83.3373 29.6974C83.3961 29.6341 83.4851 29.5193 83.535 29.4423C83.585 29.3652 83.6626 29.2678 83.7077 29.2257C83.7787 29.1593 83.9132 28.9193 83.9132 28.859C83.9132 28.8476 83.9703 28.7901 84.04 28.7314C84.1485 28.64 84.1742 28.5997 84.2181 28.4531C84.2533 28.3359 84.3056 28.2378 84.3837 28.143C84.4693 28.0392 84.5149 27.9493 84.5651 27.7857C84.6148 27.6238 84.6584 27.5374 84.7333 27.4524C84.8033 27.373 84.8509 27.2828 84.888 27.1591C84.9472 26.9621 85.003 26.8407 85.1006 26.697C85.1677 26.5982 85.2039 26.4844 85.2783 26.1386C85.3025 26.0263 85.3661 25.848 85.4198 25.7422C85.491 25.6019 85.5322 25.4709 85.5724 25.2575C85.6488 24.8509 85.6972 24.6636 85.7526 24.5603C85.8359 24.4052 85.9055 24.0674 85.9313 23.6942C85.9451 23.4951 85.9677 23.2623 85.9815 23.177C85.9953 23.0916 86.0066 22.9093 86.0066 22.7718C86.0066 22.5971 86.026 22.435 86.0713 22.2335C86.1351 21.9492 86.1359 21.9324 86.1268 21.044C86.1186 20.2529 86.1092 20.0776 86.0492 19.6072C86.0116 19.3125 85.9691 18.8992 85.9546 18.6887C85.9136 18.0906 85.8509 17.7619 85.7219 17.4681C85.6639 17.3362 85.6322 17.2086 85.6076 17.0084C85.5639 16.6546 85.546 16.5925 85.4335 16.4075C85.3452 16.2622 85.3224 16.1835 85.2392 15.737C85.2189 15.628 85.1807 15.5492 85.0861 15.4211C84.9597 15.25 84.9426 15.2064 84.8816 14.9017C84.8542 14.7646 84.829 14.7157 84.7286 14.6049C84.6123 14.4766 84.5857 14.4222 84.5265 14.1925C84.5093 14.126 84.4498 14.0288 84.3712 13.939C84.301 13.8589 84.2366 13.7639 84.228 13.728C84.2019 13.6193 84.101 13.4377 84.0218 13.3564C83.9807 13.3143 83.9056 13.2053 83.8548 13.1141C83.8041 13.0229 83.7154 12.8991 83.6576 12.8391C83.5999 12.7792 83.5372 12.693 83.5182 12.6477C83.4993 12.6024 83.4309 12.5158 83.3662 12.4553C83.3016 12.3947 83.2263 12.3012 83.1989 12.2476C83.1715 12.1939 83.0987 12.1058 83.037 12.0516C82.9754 11.9975 82.8898 11.9009 82.8468 11.8369C82.731 11.6646 82.2399 11.1815 82.0767 11.0795C81.9986 11.0307 81.8885 10.9432 81.8321 10.8852C81.7757 10.8271 81.6757 10.7486 81.6099 10.7108C81.543 10.6722 81.4616 10.5966 81.4252 10.5389C81.382 10.4705 81.3153 10.4134 81.2262 10.3685C81.1525 10.3314 81.0507 10.2637 81 10.2182C80.9492 10.1726 80.8328 10.0935 80.7413 10.0424C80.6499 9.99127 80.5346 9.91136 80.4852 9.8648C80.4358 9.81827 80.3627 9.76806 80.3226 9.75326C80.2826 9.73844 80.1981 9.70797 80.1349 9.68555C80.0718 9.66312 79.9569 9.59276 79.8796 9.52915C79.7446 9.41796 79.6544 9.38048 79.2974 9.28746C79.237 9.27172 79.1437 9.21927 79.0901 9.17094C78.9835 9.07468 78.8527 9.01993 78.6628 8.99215C78.5272 8.97232 78.3382 8.89507 78.2586 8.8269C78.1876 8.76618 77.9874 8.70517 77.7608 8.67525C77.4592 8.63542 77.2534 8.57978 77.0372 8.47966C76.8237 8.38082 76.7077 8.36263 75.8461 8.29273C75.6565 8.27737 75.3981 8.25114 75.2717 8.23451C75.1453 8.21784 74.973 8.20716 74.8888 8.21075C74.8045 8.21432 74.6437 8.19965 74.5314 8.17812C74.2844 8.13082 73.6976 8.1312 73.1783 8.17904ZM27.4551 8.771C27.2039 8.79105 27.1188 9.02182 27.2489 9.33063C27.2852 9.41692 27.332 9.58536 27.3529 9.70494C27.4141 10.056 27.4517 10.1631 27.5731 10.3323C27.6347 10.4182 27.6976 10.674 27.7267 10.9573C27.755 11.2328 27.8068 11.4016 27.891 11.4924C27.9609 11.5677 28.0316 11.792 28.0925 12.1318C28.1208 12.2892 28.1651 12.4227 28.2333 12.5562C28.3578 12.7995 28.3813 12.8811 28.4247 13.2208C28.4551 13.459 28.4759 13.5272 28.5898 13.7621C28.6898 13.9681 28.7264 14.0772 28.7468 14.2294C28.7835 14.504 28.8371 14.6809 28.9409 14.8702C29.0294 15.0317 29.1057 15.3202 29.141 15.6271C29.1576 15.771 29.2425 16.0188 29.2856 16.049C29.3257 16.0771 29.431 16.3504 29.4482 16.4712C29.4829 16.7143 29.5637 17.0135 29.6401 17.182C29.6858 17.2825 29.7476 17.5025 29.7913 17.7191C29.8517 18.0195 29.8809 18.1107 29.9525 18.2225C30.059 18.3889 30.0835 18.464 30.1372 18.7896C30.1842 19.0737 30.222 19.1998 30.3326 19.4406C30.4097 19.6086 30.4814 19.8464 30.4814 19.9343C30.4814 20.0554 30.5954 20.4353 30.6701 20.5631C30.7687 20.7319 30.8038 20.8536 30.8477 21.1785C30.8741 21.3737 30.8993 21.4561 30.9722 21.5867C31.066 21.7547 31.1459 22.0224 31.196 22.3371C31.2117 22.4353 31.2526 22.5674 31.287 22.6305C31.4535 22.9364 31.4768 23.0065 31.5286 23.3592C31.5887 23.7683 31.6106 23.8501 31.7028 24.0082C31.8139 24.1988 31.8533 24.3003 31.8722 24.4446C31.9047 24.6936 31.9932 25.0138 32.0653 25.1436C32.1476 25.2917 32.1749 25.3858 32.2435 25.759C32.2787 25.9509 32.3173 26.0738 32.3735 26.1734C32.4823 26.366 32.5417 26.548 32.575 26.7908C32.6043 27.0045 32.6806 27.2741 32.7369 27.3624C32.8048 27.469 32.8611 27.6505 32.911 27.9232C32.9687 28.2392 33.019 28.4046 33.0857 28.4988C33.154 28.5951 33.2359 28.8659 33.2748 29.1237C33.2986 29.2818 33.3416 29.4248 33.4127 29.5829C33.5125 29.8049 33.5477 29.9252 33.634 30.3389C33.6609 30.4678 33.7082 30.5893 33.774 30.6982C33.8767 30.8684 33.9503 31.162 33.9906 31.5626C34.004 31.6951 34.0371 31.7895 34.1464 32.0064C34.2227 32.1579 34.2852 32.3038 34.2852 32.3307C34.2852 32.4278 34.393 32.9021 34.439 33.0075C34.472 33.083 34.5227 33.1387 34.6076 33.1925L34.7292 33.2695H36.7237H38.7183L38.7709 33.2121C38.7998 33.1806 38.832 33.126 38.8424 33.091C38.8682 33.0042 38.948 32.8488 38.9883 32.8066C39.0415 32.751 39.0749 32.6565 39.1088 32.4659C39.2096 31.8988 39.2426 31.7771 39.3265 31.66C39.4215 31.5275 39.4719 31.3721 39.5308 31.0299C39.5676 30.8157 39.6221 30.6724 39.7074 30.5651C39.7807 30.4729 39.8138 30.3682 39.849 30.118C39.8774 29.916 39.9459 29.6786 39.9923 29.6211C40.0911 29.4989 40.2016 29.1361 40.2464 28.7866C40.2577 28.6984 40.2979 28.5966 40.3659 28.4839C40.4849 28.2867 40.4958 28.2542 40.5765 27.8543C40.625 27.6138 40.6548 27.5276 40.7268 27.4193C40.8223 27.2754 40.8707 27.1201 40.9348 26.7511C40.9656 26.5744 40.9947 26.4916 41.0616 26.3909C41.1605 26.2421 41.2193 26.0651 41.2558 25.8069C41.2895 25.5685 41.3509 25.3894 41.424 25.3163C41.5227 25.2177 41.557 25.1251 41.5985 24.8458C41.6496 24.5023 41.6677 24.4432 41.7651 24.3016C41.86 24.1638 41.8754 24.1171 41.9547 23.7276C41.9952 23.5286 42.0482 23.3634 42.1193 23.2141C42.1769 23.093 42.2366 22.9323 42.2518 22.8569C42.3203 22.5185 42.3648 22.3762 42.4541 22.2095C42.5467 22.0368 42.6132 21.8227 42.6483 21.5845C42.6669 21.4577 42.746 21.2496 42.8131 21.1507C42.8751 21.0595 42.9577 20.7686 43.0008 20.4901C43.0294 20.305 43.0616 20.2048 43.1424 20.0502C43.2063 19.9278 43.266 19.763 43.2958 19.6265C43.3727 19.274 43.387 19.2287 43.4715 19.0689C43.5813 18.8612 43.6263 18.7247 43.6677 18.4729C43.692 18.3251 43.7357 18.191 43.8066 18.0466C43.9517 17.7514 43.9587 17.7291 44.0131 17.397C44.0705 17.0465 44.0929 16.9795 44.1663 16.9403C44.3563 16.8386 44.6369 17.1279 44.6868 17.4768C44.7333 17.8026 44.8123 18.0433 44.9294 18.2167C44.9845 18.2983 45.0197 18.4248 45.0716 18.727C45.11 18.9512 45.1688 19.1288 45.2154 19.1615C45.2646 19.196 45.368 19.4784 45.4026 19.6728C45.4477 19.9265 45.5053 20.1235 45.5507 20.1794C45.6381 20.2869 45.6969 20.4505 45.7487 20.7298C45.7963 20.9862 45.8256 21.0735 45.9289 21.2671C46.0263 21.4496 46.0601 21.5461 46.0899 21.7263C46.1357 22.0038 46.185 22.1696 46.2501 22.2651C46.3226 22.3714 46.3796 22.5216 46.413 22.6943C46.4842 23.0628 46.5627 23.3248 46.6367 23.4401C46.6796 23.507 46.7271 23.6134 46.7422 23.6766C46.7574 23.7397 46.7989 23.9119 46.8344 24.0593C46.8699 24.2066 46.9183 24.3558 46.9417 24.3909C47.0413 24.5398 47.1013 24.7115 47.1228 24.9095C47.1475 25.1359 47.216 25.3411 47.3154 25.4855C47.4041 25.6143 47.4308 25.6938 47.4849 25.99C47.512 26.138 47.5668 26.3244 47.6124 26.4237C47.7082 26.6321 47.7506 26.7667 47.8186 27.078C47.8482 27.2141 47.9104 27.3923 47.9669 27.5035C48.0304 27.6287 48.0922 27.8141 48.1455 28.0393C48.1988 28.2651 48.2563 28.4375 48.3124 28.5398C48.3996 28.699 48.4537 28.8748 48.5182 29.2096C48.5406 29.3256 48.5924 29.4672 48.6534 29.5795C48.7573 29.7706 48.7749 29.8275 48.8618 30.2559C48.9126 30.5065 48.9667 30.6496 49.0653 30.7948C49.1154 30.8684 49.1818 31.113 49.2203 31.3656C49.247 31.5406 49.2851 31.6388 49.3772 31.7696C49.4432 31.8635 49.5144 32.0788 49.5357 32.249C49.5545 32.3988 49.6133 32.613 49.6578 32.6935C49.6728 32.7204 49.7108 32.7893 49.7424 32.8466C49.7739 32.9038 49.8133 32.9926 49.8299 33.0438C49.8465 33.0951 49.8877 33.1669 49.9215 33.2033L49.983 33.2695H51.9763C53.7831 33.2695 53.9757 33.2656 54.0338 33.2276C54.069 33.2045 54.1494 33.106 54.2124 33.0086C54.3315 32.8247 54.3644 32.7189 54.4403 32.2764C54.4698 32.1049 54.5099 31.9805 54.5802 31.8427C54.6548 31.6965 54.695 31.5671 54.7451 31.3112C54.7822 31.122 54.8355 30.931 54.8662 30.8775C54.8963 30.825 54.9468 30.7361 54.9784 30.6799C55.0106 30.6228 55.049 30.4882 55.0658 30.3738C55.1257 29.9662 55.1905 29.7101 55.2713 29.5619C55.3591 29.4008 55.4741 29.02 55.4741 28.8903C55.4741 28.7941 55.5834 28.4601 55.6344 28.4004C55.6965 28.3277 55.756 28.1426 55.7813 27.9434C55.8092 27.7233 55.8738 27.4942 55.9341 27.4015C56.0044 27.2934 56.0799 27.0888 56.0988 26.955C56.1356 26.6949 56.2212 26.3917 56.2953 26.2584C56.3911 26.0864 56.4295 25.954 56.482 25.6156C56.5361 25.2664 56.5812 25.1178 56.6751 24.9792C56.7643 24.8477 56.8099 24.7023 56.8672 24.366C56.8976 24.1879 56.9351 24.0731 57.0096 23.9304C57.084 23.788 57.1206 23.6763 57.1476 23.5089C57.2098 23.1243 57.2389 23.0042 57.294 22.9048C57.3232 22.8522 57.3557 22.8091 57.3661 22.8091C57.399 22.8091 57.4831 22.5475 57.5009 22.3895C57.5347 22.0904 57.5977 21.8504 57.6839 21.6924C57.7823 21.5122 57.8613 21.2376 57.8975 20.9496C57.925 20.7313 57.9717 20.6037 58.0834 20.4414C58.1416 20.3568 58.1687 20.275 58.1974 20.0964C58.2619 19.6964 58.306 19.5324 58.3947 19.3628C58.4556 19.2463 58.5003 19.0998 58.5493 18.8556C58.6205 18.5016 58.6416 18.443 58.7512 18.2967C58.8172 18.2085 58.851 18.0798 58.9463 17.5534C58.9842 17.3445 59.0244 17.2117 59.0859 17.0924C59.1733 16.923 59.2498 16.6595 59.3011 16.3516C59.3291 16.1837 59.374 16.0672 59.4576 15.946C59.5105 15.8695 59.6098 15.5267 59.6098 15.4209C59.6098 15.2987 59.7029 14.9982 59.8 14.8074C59.8495 14.7098 59.8972 14.5731 59.9059 14.5035C59.936 14.2618 60.0212 13.9676 60.1198 13.7647C60.1947 13.6107 60.2322 13.4853 60.2725 13.2544C60.3578 12.7652 60.3926 12.6438 60.4916 12.489C60.5687 12.3686 60.5979 12.2809 60.6596 11.9847C60.7277 11.6582 60.7893 11.4875 60.8792 11.3769C60.8973 11.3547 60.9414 11.1607 60.9771 10.9459C61.0392 10.5731 61.0651 10.4946 61.1927 10.294C61.2477 10.2075 61.2985 10.0124 61.3453 9.70805C61.3625 9.59579 61.4099 9.43059 61.4505 9.34096C61.4912 9.25131 61.524 9.14224 61.5235 9.09859C61.5224 8.99901 61.436 8.89504 61.3228 8.857C61.26 8.8359 60.5858 8.8284 58.8848 8.82988C56.759 8.83175 56.5215 8.83601 56.4082 8.87453C56.339 8.89805 56.2612 8.94643 56.2345 8.9825C56.2079 9.01845 56.1585 9.1699 56.1248 9.31902C56.0907 9.46988 56.0248 9.66723 55.9762 9.76392C55.9195 9.87692 55.8696 10.0358 55.8337 10.2183C55.8033 10.3727 55.766 10.5616 55.7509 10.6382C55.7358 10.7148 55.6731 10.8755 55.6115 10.9954C55.5064 11.2003 55.4657 11.3413 55.3937 11.7491C55.3786 11.8346 55.3236 11.9818 55.2691 12.0825C55.187 12.2343 55.1611 12.3229 55.105 12.6433C55.0442 12.9907 55.0295 13.0375 54.9355 13.1817C54.8307 13.3424 54.8148 13.4006 54.7337 13.9183C54.7181 14.0182 54.6786 14.1423 54.6445 14.1989C54.5072 14.4265 54.4836 14.4923 54.4291 14.7979C54.3979 14.9733 54.3614 15.1743 54.3481 15.2444C54.3348 15.3146 54.2736 15.4557 54.2122 15.558C54.1176 15.7157 54.096 15.778 54.0706 15.9662C54.0364 16.2202 53.9978 16.3547 53.871 16.6604C53.8215 16.7797 53.7499 17.03 53.7118 17.2168C53.6546 17.4972 53.6269 17.5794 53.5532 17.6888C53.4605 17.8262 53.3975 18.0361 53.368 18.306C53.3412 18.5503 53.2573 18.8282 53.1641 18.9816C53.0936 19.0975 53.0656 19.1891 53.0119 19.48C52.9757 19.676 52.9245 19.8766 52.8981 19.9259C52.7242 20.251 52.7111 20.2882 52.6655 20.5811C52.617 20.8933 52.5628 21.0811 52.5015 21.1495C52.4568 21.1994 52.3596 21.4861 52.3596 21.5681C52.3596 21.6975 52.2267 22.1333 52.1446 22.2734C52.0573 22.4222 52.0034 22.6158 51.9514 22.968C51.9245 23.15 51.8309 23.4385 51.7765 23.5071C51.7549 23.5343 51.6791 23.7841 51.6198 24.0233C51.5889 24.148 51.5179 24.2196 51.4365 24.208C51.3586 24.1969 51.3191 24.1094 51.2588 23.8143C51.2318 23.6822 51.1707 23.4909 51.1231 23.3893C51.0471 23.2268 50.9632 22.9156 50.9176 22.6258C50.9094 22.5742 50.8464 22.4218 50.7775 22.2874C50.7066 22.1491 50.6452 21.9904 50.6362 21.9221C50.5836 21.5247 50.5139 21.2442 50.4316 21.0987C50.3361 20.9298 50.283 20.7577 50.2299 20.4451C50.2059 20.3034 50.1566 20.1574 50.0755 19.9872C49.9477 19.7193 49.9109 19.5688 49.914 19.3265C49.9161 19.1694 49.8429 18.9759 49.771 18.9484C49.7096 18.9248 49.6538 18.7585 49.5756 18.3661C49.5156 18.0652 49.4776 17.938 49.4114 17.8174C49.2908 17.5974 49.245 17.4484 49.2165 17.1834C49.1834 16.8762 49.1309 16.7003 49.0241 16.5386C48.9615 16.4439 48.9239 16.3457 48.8971 16.2069C48.8111 15.7618 48.7794 15.6525 48.6793 15.4562C48.5971 15.2949 48.5668 15.1977 48.5386 15.0051C48.4987 14.7321 48.4119 14.4292 48.3617 14.3875C48.3123 14.3466 48.2301 14.0751 48.1846 13.8029C48.147 13.5779 48.0395 13.2867 47.9585 13.191C47.9106 13.1343 47.8465 12.8568 47.814 12.5655C47.7841 12.2977 47.7558 12.2153 47.6198 12.0007C47.5555 11.8993 47.5253 11.8067 47.4865 11.5925C47.4163 11.2047 47.3993 11.1481 47.2981 10.9661C47.204 10.7967 47.1429 10.5666 47.1132 10.27C47.0949 10.087 47.0229 9.8671 46.9576 9.79462C46.904 9.73514 46.8262 9.49961 46.7944 9.30035C46.7472 9.00503 46.6879 8.94036 46.3945 8.86397C46.187 8.80996 42.4299 8.81118 42.2264 8.86532C42.052 8.91173 41.9804 8.99189 41.9447 9.1811C41.8792 9.52793 41.8015 9.72966 41.7063 9.79974C41.6949 9.80806 41.6509 9.98546 41.6083 10.1939C41.5525 10.4677 41.5038 10.63 41.4333 10.7783C41.3153 11.0262 41.2943 11.0999 41.2291 11.494C41.1643 11.8864 41.1484 11.9384 41.0492 12.0825C40.9663 12.2028 40.8906 12.4438 40.8588 12.688C40.8367 12.8583 40.7929 12.989 40.6973 13.1699C40.6229 13.3109 40.6077 13.3664 40.5291 13.7841C40.5056 13.9089 40.4523 14.0596 40.3851 14.1915C40.3152 14.3287 40.2666 14.4681 40.2444 14.5957C40.1742 14.9974 40.1076 15.2026 39.9637 15.4613C39.9242 15.5322 39.8682 15.7852 39.8295 16.068C39.8112 16.2012 39.7712 16.3203 39.6881 16.489C39.5804 16.7078 39.5025 16.9765 39.4424 17.3365C39.4307 17.4067 39.3818 17.5335 39.3338 17.6183C39.2366 17.79 39.1977 17.9214 39.1485 18.2445C39.1162 18.457 39.0886 18.525 38.9091 18.8354C38.8538 18.9309 38.8291 19.0278 38.7921 19.2946C38.7664 19.4806 38.7253 19.6729 38.701 19.722C38.6767 19.7711 38.6271 19.8687 38.591 19.9389C38.5499 20.0186 38.5012 20.1956 38.4611 20.4109C38.3844 20.8225 38.3635 20.8972 38.2911 21.0192C38.2082 21.1591 38.1692 21.2842 38.0992 21.6355C38.0482 21.8912 38.0162 21.9873 37.9377 22.1202C37.8306 22.3015 37.8025 22.3968 37.7469 22.7664C37.7194 22.9499 37.6842 23.0655 37.6079 23.2231C37.5269 23.3906 37.4944 23.5023 37.4507 23.7636C37.3808 24.1808 37.3351 24.2545 37.1828 24.1961C37.1365 24.1783 37.1341 24.1731 36.9848 23.7659C36.7954 23.2492 36.7599 23.1301 36.7234 22.8868C36.6941 22.6925 36.6622 22.5945 36.5609 22.3889C36.4916 22.2482 36.4269 22.0813 36.4172 22.0182C36.3684 21.6991 36.3148 21.5007 36.224 21.3024C36.1547 21.151 36.1035 20.98 36.057 20.7448C36.002 20.4664 35.9717 20.3738 35.8881 20.2289C35.771 20.026 35.7298 19.8836 35.69 19.5434C35.6743 19.4101 35.6457 19.2475 35.6264 19.182C35.5953 19.0768 35.49 18.8624 35.4343 18.7908C35.4151 18.766 35.3268 18.3839 35.2931 18.1792C35.2694 18.0357 35.2062 17.8581 35.1511 17.7804C35.0978 17.7053 35.0203 17.4244 34.9785 17.1554C34.9515 16.9811 34.9192 16.8946 34.7808 16.6258C34.7458 16.5576 34.7 16.4026 34.6791 16.2813C34.6323 16.0094 34.5769 15.7867 34.5297 15.6815C34.4209 15.4385 34.351 15.2189 34.3097 14.9905C34.2569 14.6984 34.2435 14.6577 34.1071 14.377C34.0392 14.2373 33.9985 14.1085 33.9779 13.9688C33.9334 13.6672 33.8867 13.4982 33.8012 13.3291C33.7591 13.2459 33.6952 13.0458 33.6592 12.8844C33.5741 12.503 33.5198 12.3307 33.4617 12.2568C33.3877 12.1628 33.2974 11.8695 33.2778 11.6598C33.2554 11.4195 33.1755 11.08 33.1286 11.0253C33.0223 10.9015 32.9524 10.7088 32.8957 10.3842C32.8388 10.0575 32.8255 10.0017 32.8012 9.98665C32.789 9.9791 32.779 9.95206 32.779 9.92652C32.779 9.90101 32.7633 9.86707 32.744 9.85113C32.6934 9.80918 32.6071 9.53298 32.5788 9.32277C32.549 9.10073 32.4972 8.99549 32.3892 8.93732C32.2031 8.83703 32.1224 8.82863 31.3415 8.82823C30.923 8.82802 30.5037 8.81674 30.4097 8.80317C30.2517 8.78034 27.6877 8.75243 27.4551 8.771ZM108.025 8.82784C107.894 8.84422 107.857 8.86907 107.781 8.99368L107.719 9.09573L107.712 21.0614C107.708 27.6426 107.711 33.054 107.719 33.0867C107.727 33.1195 107.764 33.174 107.8 33.2079L107.867 33.2695H110.392C113.09 33.2695 112.986 33.2742 113.101 33.1472C113.145 33.0981 113.147 32.6443 113.145 21.1289C113.144 10.2616 113.14 9.1539 113.103 9.07764C113.081 9.03146 113.014 8.95615 112.953 8.91027L112.844 8.82685L110.486 8.82098C109.189 8.81774 108.081 8.82083 108.025 8.82784ZM73.7655 13.24C73.7234 13.2516 73.5683 13.2629 73.4209 13.2651C73.1407 13.2694 72.8665 13.3115 72.6933 13.3769C72.5926 13.4149 72.2652 13.4765 71.9912 13.509C71.7689 13.5354 71.5803 13.5965 71.4424 13.6868C71.3722 13.7328 71.197 13.8068 71.0532 13.8511C70.8509 13.9136 70.7721 13.9515 70.7049 14.0186C70.6572 14.0663 70.5566 14.1312 70.4814 14.1628C70.3077 14.2357 70.2185 14.2955 70.0834 14.4295C70.024 14.4885 69.925 14.5604 69.8634 14.5893C69.7939 14.622 69.731 14.6767 69.6974 14.7335C69.6677 14.7839 69.5865 14.8604 69.517 14.9036C69.4227 14.9622 69.3745 15.0153 69.3271 15.1133C69.2922 15.1854 69.2162 15.2961 69.1584 15.3592C69.1005 15.4224 69.0061 15.5429 68.9484 15.6271C68.8908 15.7113 68.8066 15.8217 68.7613 15.8724C68.7145 15.9248 68.6539 16.0402 68.6207 16.1402C68.566 16.3052 68.5361 16.3604 68.3809 16.5839C68.3467 16.633 68.3116 16.7076 68.3028 16.7497C68.2769 16.8731 68.1823 17.1271 68.1365 17.1962C68.0426 17.3379 67.9866 17.5034 67.9463 17.7578C67.8596 18.3061 67.7956 18.5808 67.7385 18.6504C67.6834 18.7177 67.6545 18.8817 67.615 19.3521C67.5358 20.2946 67.543 22.632 67.6259 22.9112C67.6405 22.9603 67.6632 23.0752 67.6764 23.1665C67.6897 23.2579 67.7363 23.4416 67.78 23.5747C67.8237 23.7079 67.8919 23.9847 67.9314 24.1899C67.971 24.395 68.0285 24.6131 68.0592 24.6746C68.0898 24.7361 68.1478 24.8495 68.1879 24.9267C68.2341 25.0156 68.2673 25.1278 68.2784 25.2329C68.2992 25.4294 68.3298 25.4957 68.4672 25.6431C68.524 25.7039 68.5704 25.7656 68.5704 25.7803C68.5705 25.8423 68.726 26.1284 68.8105 26.2218C68.8609 26.2776 68.9297 26.3849 68.9635 26.4605C69.003 26.5487 69.0669 26.6325 69.1425 26.695C69.2072 26.7484 69.2822 26.8345 69.3093 26.8863C69.3363 26.9381 69.4166 27.0414 69.4877 27.1158C69.5589 27.1901 69.6171 27.2608 69.6171 27.2727C69.6171 27.2847 69.68 27.3362 69.757 27.3873C69.8339 27.4383 69.9264 27.5188 69.9626 27.5662C69.9987 27.6136 70.0791 27.6762 70.1412 27.7053C70.2106 27.7379 70.2895 27.8058 70.346 27.8815C70.4293 27.993 70.458 28.0111 70.6496 28.0735C70.8004 28.1225 70.8879 28.1683 70.9544 28.2329C71.0603 28.3356 71.1814 28.3816 71.4512 28.4212C71.6361 28.4484 71.7383 28.4873 71.8636 28.5783C71.9601 28.6484 72.3317 28.7244 72.7514 28.7597C73.2309 28.8001 74.3021 28.8008 74.9843 28.7612C75.5664 28.7274 75.7433 28.6899 76.0607 28.5333C76.18 28.4745 76.3143 28.4339 76.4758 28.4079C76.7748 28.3599 76.8274 28.3397 76.9407 28.2297C76.9909 28.181 77.0552 28.1343 77.0836 28.1259C77.2258 28.0841 77.4238 27.966 77.5159 27.8683C77.5725 27.8081 77.6594 27.7461 77.709 27.7304C77.844 27.6878 77.9074 27.6403 77.977 27.5302C78.0117 27.4754 78.0892 27.3964 78.1493 27.3546C78.2094 27.3129 78.2868 27.2323 78.3213 27.1754C78.3558 27.1186 78.4223 27.0516 78.469 27.0264C78.5535 26.981 78.6798 26.8267 78.6798 26.7689C78.6798 26.7523 78.7359 26.6767 78.8046 26.601C78.8732 26.5253 78.9703 26.3901 79.0204 26.3006C79.0704 26.2112 79.1456 26.103 79.1873 26.0603C79.2369 26.0096 79.2917 25.8991 79.3454 25.7418C79.3905 25.6093 79.4574 25.4565 79.494 25.4022C79.6355 25.1922 79.6714 25.1187 79.6876 25.0056C79.7105 24.845 79.799 24.5495 79.8298 24.5305C79.9277 24.47 80.0223 24.0961 80.0845 23.5235C80.1095 23.2935 80.1249 23.2197 80.2359 22.7964C80.3501 22.3609 80.3491 22.3767 80.3505 21.1507C80.3521 19.7863 80.352 19.7849 80.1333 18.8612C80.106 18.7456 80.0722 18.5413 80.0583 18.4072C80.0303 18.1373 79.9943 17.963 79.9425 17.8461C79.8365 17.6071 79.7479 17.3597 79.7132 17.2055C79.6583 16.9618 79.6303 16.896 79.5193 16.7488C79.464 16.6755 79.4064 16.5591 79.3852 16.478C79.3382 16.2974 79.2688 16.1628 79.1605 16.0422C79.1135 15.9898 79.0538 15.8865 79.0279 15.8126C78.9943 15.7171 78.9415 15.6412 78.8456 15.5506C78.7714 15.4804 78.7029 15.3973 78.6936 15.3658C78.6842 15.3343 78.6329 15.2535 78.5796 15.1861C78.4495 15.0216 78.0027 14.5878 77.8756 14.5026C77.8195 14.465 77.7366 14.3913 77.6916 14.3389C77.6348 14.2729 77.5602 14.2257 77.449 14.1852C77.3607 14.1531 77.2483 14.0897 77.1991 14.0443C77.0884 13.9418 76.9966 13.8959 76.8162 13.8524C76.6686 13.8168 76.5612 13.7578 76.4647 13.6592C76.3914 13.5843 76.2264 13.5405 75.8078 13.4848C75.6184 13.4595 75.3773 13.4078 75.2462 13.3641C75.0609 13.3025 74.9879 13.2902 74.869 13.3005C74.7836 13.308 74.6494 13.2976 74.5499 13.2758C74.3473 13.2314 73.8747 13.2098 73.7655 13.24ZM96.7116 13.5101C96.6406 13.5454 96.5265 13.6273 96.458 13.6919C96.3896 13.7565 96.2721 13.8384 96.1969 13.874C96.1098 13.9152 96.038 13.9722 95.999 14.0311C95.9627 14.086 95.8813 14.1531 95.7986 14.1963C95.7221 14.2363 95.626 14.3106 95.5851 14.3613C95.5442 14.412 95.4334 14.4935 95.3387 14.5424C95.2441 14.5912 95.1295 14.6716 95.0841 14.7209C94.9882 14.8251 94.8735 14.9113 94.7993 14.9348C94.7707 14.9439 94.6967 15.0044 94.6349 15.0692C94.5731 15.134 94.4758 15.207 94.4188 15.2314C94.3618 15.2559 94.2725 15.3279 94.2204 15.3915C94.1564 15.4695 94.0726 15.5319 93.9628 15.5832C93.8733 15.6251 93.7446 15.7125 93.6767 15.7775C93.6088 15.8425 93.4945 15.9288 93.4228 15.9693C93.351 16.0097 93.2626 16.0817 93.2264 16.1293C93.1901 16.1768 93.1066 16.2434 93.0407 16.2772C92.9749 16.3111 92.8903 16.3816 92.8527 16.434C92.8092 16.4947 92.7298 16.5554 92.6339 16.6012C92.5511 16.6408 92.4247 16.7282 92.3531 16.7954C92.2814 16.8627 92.1514 16.9514 92.0642 16.9927C91.958 17.0429 91.8928 17.0922 91.8672 17.1417C91.8244 17.2244 91.6869 17.3493 91.6385 17.3493C91.6212 17.3493 91.5818 17.3833 91.5511 17.4248L91.4953 17.5003V25.3036V33.1069L91.5722 33.1805C91.6307 33.2366 91.684 33.2585 91.7955 33.2724C92.0141 33.2997 96.8421 33.2992 96.914 33.2719C96.9476 33.2591 96.9946 33.2189 97.0184 33.1825C97.0591 33.1204 97.0618 32.5095 97.0605 23.4915C97.0598 18.1979 97.0497 13.7986 97.038 13.7155C97.0216 13.5982 97.0013 13.5509 96.9479 13.505C96.8629 13.432 96.8687 13.4318 96.7116 13.5101Z" fill="#00887A"/>
</svg>
