<svg width="14" height="15" viewBox="0 0 14 15" fill="none" xmlns="http://www.w3.org/2000/svg">
<path d="M11.1993 3.89688H5.35078C5.16632 3.89736 4.98377 3.9342 4.81356 4.00529C4.64335 4.07639 4.48883 4.18035 4.35884 4.31122C4.22884 4.44209 4.12593 4.59731 4.05598 4.76799C3.98603 4.93867 3.95042 5.12147 3.95118 5.30593V12.6405C3.95118 13.4185 4.57791 14.0496 5.35078 14.0496H11.1993C11.3837 14.0491 11.5663 14.0123 11.7365 13.9412C11.9067 13.8701 12.0612 13.7661 12.1912 13.6353C12.3212 13.5044 12.4241 13.3492 12.4941 13.1785C12.564 13.0078 12.5996 12.825 12.5989 12.6405V5.30593C12.5989 4.52797 11.9721 3.89688 11.1993 3.89688Z" stroke="black" stroke-width="1.2" stroke-linecap="round" stroke-linejoin="round"/>
<path d="M9.2473 3.89796V2.00905C9.2473 1.63534 9.0997 1.2769 8.83723 1.01298C8.70765 0.882319 8.55352 0.778568 8.3837 0.707695C8.21388 0.636821 8.03172 0.600223 7.8477 0.600006H1.99921C1.6284 0.600006 1.27214 0.748327 1.0104 1.01298C0.747726 1.27801 0.600124 1.63591 0.599609 2.00905V9.34367C0.599609 9.71738 0.747203 10.0758 1.00967 10.3397C1.27214 10.6037 1.62768 10.7527 1.99921 10.7527H3.95137" stroke="black" stroke-width="1.2" stroke-linecap="round" stroke-linejoin="round"/>
</svg>
