<svg width="19" height="18" viewBox="0 0 19 18" fill="none" xmlns="http://www.w3.org/2000/svg">
<path d="M3.86472 1.94051C3.86167 2.3206 3.74615 2.69129 3.53274 3.00583C3.31933 3.32038 3.01758 3.5647 2.66552 3.70801C2.31346 3.85131 1.92686 3.88719 1.55444 3.8111C1.18203 3.73502 0.840469 3.55039 0.572828 3.28048C0.305186 3.01057 0.123441 2.66747 0.0505008 2.29443C-0.022439 1.92138 0.0166923 1.5351 0.162962 1.18426C0.309231 0.833421 0.556092 0.533738 0.872424 0.322987C1.18876 0.112236 1.5604 -0.000148423 1.94051 1.47115e-07C2.19427 0.00106772 2.44534 0.0521076 2.67937 0.150205C2.91341 0.248303 3.12583 0.391538 3.30451 0.571731C3.48319 0.751925 3.62463 0.965548 3.72075 1.2004C3.81687 1.43526 3.8658 1.68675 3.86472 1.94051ZM3.8802 5.43294H0V17.8515H3.88102L3.8802 5.43294ZM10.0716 5.43294H6.21989V17.8515H10.0765V11.3343C10.0765 7.7099 14.7558 7.41336 14.7558 11.3343V17.8515H18.6271V9.98849C18.6271 3.87206 11.7025 4.09527 10.0732 7.10624L10.0716 5.43294Z" fill="black" fill-opacity="0.7"/>
</svg>
