<svg width="13" height="16" viewBox="0 0 13 16" fill="none" xmlns="http://www.w3.org/2000/svg">
<path d="M12.4241 13.6623C12.4241 14.953 11.3778 15.9993 10.0871 15.9993C8.79634 15.9993 7.75 14.953 7.75 13.6623C7.75 12.3715 8.79634 11.3252 10.0871 11.3252C11.3778 11.3252 12.4241 12.3715 12.4241 13.6623Z" fill="#2A2A2A"/>
<path d="M4.67413 8.05871C4.67413 9.34944 3.62779 10.3958 2.33707 10.3958C1.04634 10.3958 0 9.34944 0 8.05871C0 6.76798 1.04634 5.72164 2.33707 5.72164C3.62779 5.72164 4.67413 6.76798 4.67413 8.05871Z" fill="#2A2A2A"/>
<path d="M12.4241 2.56669C12.4241 3.85742 11.3778 4.90376 10.0871 4.90376C8.79634 4.90376 7.75 3.85742 7.75 2.56669C7.75 1.27596 8.79634 0.229622 10.0871 0.229622C11.3778 0.229622 12.4241 1.27596 12.4241 2.56669Z" fill="#2A2A2A"/>
<path d="M10.4789 13.6615L2.14844 7.83962" stroke="#2A2A2A" stroke-width="0.923999"/>
<path d="M11.0695 1.96907L2.77344 7.83984" stroke="#2A2A2A" stroke-width="0.923999"/>
</svg>
