<svg width="22" height="16" viewBox="0 0 22 16" fill="none" xmlns="http://www.w3.org/2000/svg">
<path d="M21.0476 2.3201C20.9232 1.87354 20.6856 1.46668 20.3578 1.13888C20.03 0.811091 19.6231 0.573475 19.1766 0.449037C17.5027 1.18855e-05 10.7579 1.17965e-05 10.7579 1.17965e-05C10.7579 1.17965e-05 4.03123 -0.00872121 2.3392 0.449037C1.89264 0.573475 1.48577 0.811091 1.15798 1.13888C0.830189 1.46668 0.592573 1.87354 0.468136 2.3201C0.150453 4.03549 -0.00621058 5.77682 0.000188346 7.52137C-0.0049925 9.25936 0.151666 10.9941 0.468136 12.703C0.592573 13.1496 0.830189 13.5564 1.15798 13.8842C1.48577 14.212 1.89264 14.4496 2.3392 14.5741C4.01304 15.0238 10.7579 15.0238 10.7579 15.0238C10.7579 15.0238 17.4831 15.0238 19.1766 14.5741C19.6231 14.4496 20.03 14.212 20.3578 13.8842C20.6856 13.5564 20.9232 13.1496 21.0476 12.703C21.3575 10.9934 21.5076 9.25875 21.4959 7.52137C21.5088 5.77744 21.3587 4.03611 21.0476 2.3201ZM8.60591 10.7388V4.29377L14.2184 7.52137L8.60591 10.7388Z" fill="black" fill-opacity="0.7"/>
</svg>
